<?xml version="1.0" encoding="UTF-8"?>
<svg width="32px" height="32px" viewBox="0 0 32 32" version="1.1" xmlns="http://www.w3.org/2000/svg">
    <title>PepperPy Favicon</title>
    <defs>
        <linearGradient x1="0%" y1="0%" x2="100%" y2="100%" id="pepperGradient">
            <stop stop-color="#f44336" offset="0%"></stop>
            <stop stop-color="#e91e63" offset="100%"></stop>
        </linearGradient>
    </defs>
    <g stroke="none" stroke-width="1" fill="none" fill-rule="evenodd">
        <circle cx="16" cy="16" r="14" fill="url(#pepperGradient)"></circle>
        <path d="M16,6 C12.686,6 10,8.686 10,12 C10,13.8 11,15.4 12.5,16.3 C9.9,17.6 8,20.3 8,23.4 L10,23.4 C10,20.3 12.7,18 16,18 C19.3,18 22,20.3 22,23.4 L24,23.4 C24,20.3 22.1,17.6 19.5,16.3 C21,15.4 22,13.8 22,12 C22,8.686 19.314,6 16,6 Z" fill="#FFFFFF" fill-rule="nonzero"></path>
    </g>
</svg> 