<?xml version="1.0" encoding="UTF-8"?>
<svg width="48px" height="48px" viewBox="0 0 48 48" version="1.1" xmlns="http://www.w3.org/2000/svg">
    <title>PepperPy Logo</title>
    <defs>
        <linearGradient x1="0%" y1="0%" x2="100%" y2="100%" id="pepperGradient">
            <stop stop-color="#f44336" offset="0%"></stop>
            <stop stop-color="#e91e63" offset="100%"></stop>
        </linearGradient>
    </defs>
    <g stroke="none" stroke-width="1" fill="none" fill-rule="evenodd">
        <path d="M24,4 C12.954,4 4,12.954 4,24 C4,35.046 12.954,44 24,44 C35.046,44 44,35.046 44,24 C44,12.954 35.046,4 24,4 Z" fill="url(#pepperGradient)"></path>
        <path d="M24,10 C19.582,10 16,13.582 16,18 C16,20.358 17.074,22.46 18.732,23.808 C15.296,25.6 13,29.066 13,33 L16,33 C16,29.134 19.134,26 23,26 L25,26 C28.866,26 32,29.134 32,33 L35,33 C35,29.066 32.704,25.6 29.268,23.808 C30.926,22.46 32,20.358 32,18 C32,13.582 28.418,10 24,10 Z M24,13 C26.76,13 29,15.24 29,18 C29,20.76 26.76,23 24,23 C21.24,23 19,20.76 19,18 C19,15.24 21.24,13 24,13 Z" fill="#FFFFFF" fill-rule="nonzero"></path>
    </g>
</svg> 