<svg width="100" height="100" viewBox="0 0 100 100" xmlns="http://www.w3.org/2000/svg">
    <defs>
        <linearGradient id="logoGradient" x1="0%" y1="0%" x2="100%" y2="100%">
            <stop offset="0%" stop-color="#6f42c1" />
            <stop offset="100%" stop-color="#fd7e14" />
        </linearGradient>
    </defs>
    <g fill="url(#logoGradient)">
        <path d="M50,10 C30,10 10,30 10,50 C10,70 30,90 50,90 C70,90 90,70 90,50 C90,30 70,10 50,10 Z M50,80 C35,80 20,65 20,50 C20,35 35,20 50,20 C65,20 80,35 80,50 C80,65 65,80 50,80 Z" />
        <circle cx="50" cy="50" r="15" />
        <path d="M40,30 L60,30 L60,35 L40,35 Z" />
        <path d="M40,65 L60,65 L60,70 L40,70 Z" />
        <path d="M30,40 L35,40 L35,60 L30,60 Z" />
        <path d="M65,40 L70,40 L70,60 L65,60 Z" />
    </g>
</svg> 